<svg xmlns="http://www.w3.org/2000/svg" width="149.046" height="79.921" viewBox="0 0 149.046 79.921"><defs><style>.a{fill:#747474;stroke:#707070;}.b,.c{fill:#fff;}.c{stroke:#fff;}.d{stroke:none;}.e{fill:none;}</style></defs><g transform="translate(-84.954 -911.219)"><g class="a" transform="translate(84.954 911.219)"><rect class="d" width="149.046" height="79.921" rx="16"/><rect class="e" x="0.5" y="0.5" width="148.046" height="78.921" rx="15.5"/></g><path class="b" d="M27.353,20.689v8.274H0V20.689Zm8.416,0v8.274H63.123V20.689ZM4.208,33.1V51.714a6.26,6.26,0,0,0,6.312,6.205H27.353V33.1Zm31.561,0V57.919H52.6a6.26,6.26,0,0,0,6.312-6.205V33.1ZM44.186,0A12.6,12.6,0,0,0,31.561,9.312,12.6,12.6,0,0,0,18.937,0,8.106,8.106,0,0,0,10.52,7.774q-.008.252,0,.5a7.171,7.171,0,0,0,6,8.227,7.4,7.4,0,0,0,2.041.046h25.8a7.349,7.349,0,0,0,8.416-6.03,7.112,7.112,0,0,0,0-2.243A8.346,8.346,0,0,0,44.356,0ZM18.937,12.415a3.854,3.854,0,0,1-4.208-3.443,3.746,3.746,0,0,1,0-.694,3.825,3.825,0,0,1,3.5-4.137,3.942,3.942,0,0,1,.706,0,8.346,8.346,0,0,1,8.416,8.274Zm25.249,0H35.77a8.346,8.346,0,0,1,8.416-8.274,4.173,4.173,0,0,1,4.208,4.137,3.825,3.825,0,0,1-3.5,4.137A3.942,3.942,0,0,1,44.186,12.415Z" transform="translate(99.954 922.221)"/><g class="c" transform="translate(170 948.494)"><rect class="d" width="49" height="6"/><rect class="e" x="0.5" y="0.5" width="48" height="5"/></g></g></svg>